<mxfile host="app.diagrams.net" agent="Mozilla/5.0 (Windows NT 10.0; Win64; x64) AppleWebKit/537.36 (KHTML, like Gecko) Chrome/131.0.0.0 Safari/537.36" version="25.0.3">
  <diagram name="Page-1" id="hdH4HF6eqcp0WWkdIuRA">
    <mxGraphModel dx="989" dy="514" grid="1" gridSize="10" guides="1" tooltips="1" connect="1" arrows="1" fold="1" page="1" pageScale="1" pageWidth="850" pageHeight="1100" math="0" shadow="0">
      <root>
        <mxCell id="0" />
        <mxCell id="1" parent="0" />
        <mxCell id="zVl2Vu5BHkUilVqG1_iT-5" style="edgeStyle=orthogonalEdgeStyle;rounded=0;orthogonalLoop=1;jettySize=auto;html=1;entryX=0.5;entryY=0;entryDx=0;entryDy=0;" edge="1" parent="1" source="zVl2Vu5BHkUilVqG1_iT-1" target="zVl2Vu5BHkUilVqG1_iT-3">
          <mxGeometry relative="1" as="geometry" />
        </mxCell>
        <mxCell id="zVl2Vu5BHkUilVqG1_iT-1" value="&lt;font style=&quot;font-size: 24px;&quot;&gt;start&lt;/font&gt;" style="strokeWidth=2;html=1;shape=mxgraph.flowchart.start_1;whiteSpace=wrap;" vertex="1" parent="1">
          <mxGeometry x="375" y="40" width="100" height="60" as="geometry" />
        </mxCell>
        <mxCell id="zVl2Vu5BHkUilVqG1_iT-2" value="&lt;font style=&quot;font-size: 24px;&quot;&gt;end&lt;/font&gt;" style="strokeWidth=2;html=1;shape=mxgraph.flowchart.start_1;whiteSpace=wrap;" vertex="1" parent="1">
          <mxGeometry x="375" y="450" width="100" height="60" as="geometry" />
        </mxCell>
        <mxCell id="zVl2Vu5BHkUilVqG1_iT-6" style="edgeStyle=orthogonalEdgeStyle;rounded=0;orthogonalLoop=1;jettySize=auto;html=1;entryX=0.5;entryY=0;entryDx=0;entryDy=0;" edge="1" parent="1" source="zVl2Vu5BHkUilVqG1_iT-3" target="zVl2Vu5BHkUilVqG1_iT-4">
          <mxGeometry relative="1" as="geometry" />
        </mxCell>
        <mxCell id="zVl2Vu5BHkUilVqG1_iT-3" value="a = 10, b = 20, c[] = &quot;Haha&quot;, d = &quot;a" style="rounded=1;whiteSpace=wrap;html=1;absoluteArcSize=1;arcSize=14;strokeWidth=2;" vertex="1" parent="1">
          <mxGeometry x="328" y="160" width="195" height="40" as="geometry" />
        </mxCell>
        <mxCell id="zVl2Vu5BHkUilVqG1_iT-4" value="output a, b, c, d" style="shape=parallelogram;perimeter=parallelogramPerimeter;whiteSpace=wrap;html=1;fixedSize=1;" vertex="1" parent="1">
          <mxGeometry x="288" y="280" width="275" height="50" as="geometry" />
        </mxCell>
        <mxCell id="zVl2Vu5BHkUilVqG1_iT-7" style="edgeStyle=orthogonalEdgeStyle;rounded=0;orthogonalLoop=1;jettySize=auto;html=1;entryX=0.5;entryY=0;entryDx=0;entryDy=0;entryPerimeter=0;" edge="1" parent="1" source="zVl2Vu5BHkUilVqG1_iT-4" target="zVl2Vu5BHkUilVqG1_iT-2">
          <mxGeometry relative="1" as="geometry" />
        </mxCell>
      </root>
    </mxGraphModel>
  </diagram>
</mxfile>
